<?xml version="1.0" encoding="UTF-8"?>
<svg version="1.1" xmlns="http://www.w3.org/2000/svg" width="225" height="100">
<path d="M0 0 C74.25 0 148.5 0 225 0 C225 33 225 66 225 100 C150.75 100 76.5 100 0 100 C0 67 0 34 0 0 Z " fill="#FDFDFD" transform="translate(0,0)"/>
<path d="M0 0 C1.87870733 -0.01649265 3.75735366 -0.04369345 5.63574219 -0.08203125 C8.35018339 -0.13714924 11.06314861 -0.15873312 13.77807617 -0.17333984 C14.60860001 -0.19600922 15.43912384 -0.21867859 16.29481506 -0.24203491 C22.55779837 -0.21963871 26.31349129 1.62665225 31.27416992 5.35009766 C32.34666992 6.11322266 33.41916992 6.87634766 34.52416992 7.66259766 C39.85121826 12.86857671 41.50976726 17.32084278 41.64916992 24.78759766 C41.51722412 29.53214866 40.94801309 33.82535876 39.51635742 38.35009766 C39.18318651 41.10144455 40.2038888 42.82069227 41.27416992 45.35009766 C42.7091924 54.08441717 40.24827338 61.16178358 35.27416992 68.35009766 C32.8128499 70.78784182 30.28795988 72.65407821 27.27416992 74.35009766 C26.74718506 74.6962915 26.2202002 75.04248535 25.67724609 75.39916992 C22.14234893 76.79797359 18.64216101 76.65526113 14.89526367 76.65087891 C13.68254539 76.65730659 13.68254539 76.65730659 12.44532776 76.66386414 C10.73992854 76.66959638 9.03450488 76.67011585 7.32910156 76.66577148 C4.71727045 76.66260445 2.10656478 76.68610773 -0.50512695 76.71142578 C-2.16332865 76.71369815 -3.82153339 76.71440256 -5.47973633 76.71337891 C-6.26103409 76.72258865 -7.04233185 76.7317984 -7.8473053 76.74128723 C-13.20458433 76.69542691 -13.20458433 76.69542691 -15.74121094 75.01489258 C-16.72583008 73.35009766 -16.72583008 73.35009766 -16.72583008 70.35009766 C-15.73252686 70.33027832 -14.73922363 70.31045898 -13.71582031 70.29003906 C-10.00496514 70.21354883 -6.29448005 70.12490107 -2.58398438 70.03271484 C-0.98282212 69.99460347 0.61842056 69.95972053 2.21972656 69.92822266 C4.53113406 69.88218155 6.84199636 69.82425558 9.15307617 69.76416016 C9.86065567 69.75260895 10.56823517 69.74105774 11.29725647 69.72915649 C18.36366716 69.52272873 24.11592171 68.3650612 29.27416992 63.35009766 C33.03354638 57.97955986 34.04644196 52.89541972 33.27416992 46.35009766 C32.28994846 44.34228588 31.29182919 42.34117014 30.27416992 40.35009766 C30.47890886 37.55199885 31.16636029 35.59277181 32.30151367 33.03759766 C34.34999342 27.37754115 34.23084727 21.41652072 31.71166992 15.97509766 C27.3048515 11.2292932 22.8321231 7.58617171 16.1796875 7.14477539 C14.93856201 7.10811768 13.69743652 7.07145996 12.41870117 7.03369141 C10.60269409 6.97652954 10.60269409 6.97652954 8.75 6.91821289 C7.21110107 6.87510986 5.67220215 6.83200684 4.08666992 6.78759766 C-0.80145508 6.64322266 -5.68958008 6.49884766 -10.72583008 6.35009766 C-10.72583008 23.51009766 -10.72583008 40.67009766 -10.72583008 58.35009766 C-3.67208008 58.22634766 -3.67208008 58.22634766 3.52416992 58.10009766 C5.74055176 58.07641113 5.74055176 58.07641113 8.00170898 58.05224609 C9.16927734 58.02163086 10.3368457 57.99101563 11.53979492 57.95947266 C12.73378906 57.93852539 13.9277832 57.91757813 15.15795898 57.89599609 C18.84882289 57.24942984 20.05309804 56.32005732 22.27416992 53.35009766 C22.9409736 50.30730394 22.9409736 50.30730394 22.27416992 47.35009766 C19.44163976 44.19073709 16.3772015 43.81635124 12.27416992 43.35009766 C12.27416992 40.71009766 12.27416992 38.07009766 12.27416992 35.35009766 C13.36729492 35.08197266 14.46041992 34.81384766 15.58666992 34.53759766 C19.75199017 33.40087891 19.75199017 33.40087891 22.27416992 30.35009766 C22.73442503 27.60007337 22.96878172 25.06291225 22.27416992 22.35009766 C19.88338045 19.59343539 17.6555677 19.13528357 14.16479492 18.83837891 C12.61851813 18.76569068 11.07150277 18.70750367 9.52416992 18.66259766 C8.33500977 18.61135742 8.33500977 18.61135742 7.12182617 18.55908203 C5.17309488 18.47690662 3.2236563 18.4118172 1.27416992 18.35009766 C1.29511719 19.29852539 1.31606445 20.24695313 1.33764648 21.22412109 C1.40590552 24.7502619 1.45600921 28.27569865 1.49389648 31.80224609 C1.51398591 33.32709851 1.54126308 34.85187413 1.57592773 36.37646484 C1.62456788 38.57099364 1.64716388 40.76450234 1.66479492 42.95947266 C1.68574219 44.27915039 1.70668945 45.59882812 1.72827148 46.95849609 C1.27416992 50.35009766 1.27416992 50.35009766 -0.56274414 52.81201172 C-2.72583008 54.35009766 -2.72583008 54.35009766 -5.72583008 54.35009766 C-5.72583008 40.16009766 -5.72583008 25.97009766 -5.72583008 11.35009766 C0.02854492 11.25728516 0.02854492 11.25728516 5.89916992 11.16259766 C7.09751465 11.13528564 8.29585937 11.10797363 9.53051758 11.07983398 C16.28792435 11.02706834 20.78049878 11.51059127 26.17260742 15.89306641 C28.91270989 18.94487365 30.66796964 21.21919075 30.83666992 25.41259766 C30.26641485 29.40438316 29.31088826 31.90334354 27.27416992 35.35009766 C26.68635742 36.52572266 26.68635742 36.52572266 26.08666992 37.72509766 C25.81854492 38.26134766 25.55041992 38.79759766 25.27416992 39.35009766 C26.09916992 40.36072266 26.92416992 41.37134766 27.77416992 42.41259766 C30.44463152 46.17552082 30.95203392 48.68978265 30.27416992 53.35009766 C28.46252969 58.28178494 25.60578211 62.34396832 21.27416992 65.35009766 C18.2104973 66.13718262 15.30348082 66.05455931 12.15698242 65.93603516 C10.87124832 65.92330063 10.87124832 65.92330063 9.55953979 65.91030884 C6.83810469 65.87688329 4.11969984 65.80163061 1.39916992 65.72509766 C-0.4523496 65.69498375 -2.30391585 65.66761044 -4.15551758 65.64306641 C-8.68011181 65.57712832 -13.20245833 65.47368705 -17.72583008 65.35009766 C-17.74895692 57.02280818 -17.7667469 48.69553203 -17.77764225 40.36821842 C-17.78287033 36.50189648 -17.78996662 32.63559644 -17.80126953 28.76928711 C-17.81210108 25.04106365 -17.81810748 21.31286131 -17.82070732 17.58462334 C-17.82256109 16.1592011 -17.82618079 14.73378007 -17.83156013 13.30836678 C-17.83877401 11.31846358 -17.83923816 9.32853932 -17.83935547 7.33862305 C-17.84157608 6.20389053 -17.84379669 5.06915802 -17.84608459 3.90003967 C-17.54967663 -2.38515567 -5.02431059 0.03230506 0 0 Z " fill="#0E0E0E" transform="translate(101.725830078125,13.64990234375)"/>
</svg>
